<svg xmlns="http://www.w3.org/2000/svg" xmlns:xlink="http://www.w3.org/1999/xlink" width="500" zoomAndPan="magnify" viewBox="0 0 375 374.999991" height="500" preserveAspectRatio="xMidYMid meet" version="1.0"><defs><filter x="0%" y="0%" width="100%" height="100%" id="c542bf0a87"><feColorMatrix values="0 0 0 0 1 0 0 0 0 1 0 0 0 0 1 0 0 0 1 0" color-interpolation-filters="sRGB"/></filter><clipPath id="7d1980f4a0"><path d="M 19.027344 19.027344 L 355.972656 19.027344 L 355.972656 355.972656 L 19.027344 355.972656 Z M 19.027344 19.027344 " clip-rule="nonzero"/></clipPath><clipPath id="d2fdf15cb5"><path d="M 37.777344 19.027344 L 337.222656 19.027344 C 342.195312 19.027344 346.964844 21 350.480469 24.519531 C 354 28.035156 355.972656 32.804688 355.972656 37.777344 L 355.972656 337.222656 C 355.972656 342.195312 354 346.964844 350.480469 350.480469 C 346.964844 354 342.195312 355.972656 337.222656 355.972656 L 37.777344 355.972656 C 32.804688 355.972656 28.035156 354 24.519531 350.480469 C 21 346.964844 19.027344 342.195312 19.027344 337.222656 L 19.027344 37.777344 C 19.027344 32.804688 21 28.035156 24.519531 24.519531 C 28.035156 21 32.804688 19.027344 37.777344 19.027344 Z M 37.777344 19.027344 " clip-rule="nonzero"/></clipPath><clipPath id="9baf296845"><path d="M 0.0273438 0.0273438 L 336.972656 0.0273438 L 336.972656 336.972656 L 0.0273438 336.972656 Z M 0.0273438 0.0273438 " clip-rule="nonzero"/></clipPath><clipPath id="7ad7c17643"><path d="M 18.777344 0.0273438 L 318.222656 0.0273438 C 323.195312 0.0273438 327.964844 2 331.480469 5.519531 C 335 9.035156 336.972656 13.804688 336.972656 18.777344 L 336.972656 318.222656 C 336.972656 323.195312 335 327.964844 331.480469 331.480469 C 327.964844 335 323.195312 336.972656 318.222656 336.972656 L 18.777344 336.972656 C 13.804688 336.972656 9.035156 335 5.519531 331.480469 C 2 327.964844 0.0273438 323.195312 0.0273438 318.222656 L 0.0273438 18.777344 C 0.0273438 13.804688 2 9.035156 5.519531 5.519531 C 9.035156 2 13.804688 0.0273438 18.777344 0.0273438 Z M 18.777344 0.0273438 " clip-rule="nonzero"/></clipPath><clipPath id="f39b035fdf"><rect x="0" width="337" y="0" height="337"/></clipPath><mask id="1e2c8d7e82"><g filter="url(#c542bf0a87)"><rect x="-37.5" width="450" fill="#000000" y="-37.499999" height="449.999989" fill-opacity="0.52"/></g></mask><clipPath id="b0a83c159f"><path d="M 0.660156 0.554688 L 264.441406 0.554688 L 264.441406 313 L 0.660156 313 Z M 0.660156 0.554688 " clip-rule="nonzero"/></clipPath><clipPath id="7525052546"><rect x="0" width="265" y="0" height="314"/></clipPath><clipPath id="a0f9f0ecfa"><path d="M 99.765625 83.832031 L 275.265625 83.832031 L 275.265625 291.582031 L 99.765625 291.582031 Z M 99.765625 83.832031 " clip-rule="nonzero"/></clipPath></defs><rect x="-37.5" width="450" fill="#ffffff" y="-37.499999" height="449.999989" fill-opacity="1"/><rect x="-37.5" width="450" fill="#ffffff" y="-37.499999" height="449.999989" fill-opacity="1"/><g clip-path="url(#7d1980f4a0)"><g clip-path="url(#d2fdf15cb5)"><g transform="matrix(1, 0, 0, 1, 19, 19)"><g clip-path="url(#f39b035fdf)"><g clip-path="url(#9baf296845)"><g clip-path="url(#7ad7c17643)"><path fill="#9747ff" d="M 0.0273438 0.0273438 L 336.972656 0.0273438 L 336.972656 336.972656 L 0.0273438 336.972656 Z M 0.0273438 0.0273438 " fill-opacity="1" fill-rule="nonzero"/></g></g></g></g></g></g><g mask="url(#1e2c8d7e82)"><g transform="matrix(1, 0, 0, 1, 55, 31)"><g clip-path="url(#7525052546)"><g clip-path="url(#b0a83c159f)"><path fill="#ffffff" d="M 263.769531 1.175781 C 263.269531 0.675781 262.457031 0.613281 261.894531 1.082031 L 95.773438 134.636719 C 95.335938 135.011719 95.148438 135.636719 95.335938 136.199219 C 95.523438 136.757812 96.054688 137.132812 96.648438 137.132812 L 132.027344 137.132812 L 46.84375 212.855469 C 46.40625 213.230469 46.28125 213.855469 46.46875 214.386719 C 46.65625 214.917969 47.1875 215.292969 47.777344 215.292969 L 80.597656 215.292969 L 1.097656 310.71875 C 0.660156 311.25 0.660156 312.0625 1.160156 312.59375 C 1.410156 312.875 1.78125 313 2.15625 313 C 2.46875 313 2.75 312.90625 3.03125 312.71875 L 178.929688 175.917969 C 179.394531 175.574219 179.582031 174.917969 179.394531 174.355469 C 179.207031 173.792969 178.679688 173.417969 178.085938 173.417969 L 145.765625 173.417969 L 221.425781 100.910156 C 221.832031 100.507812 221.957031 99.914062 221.738281 99.382812 C 221.519531 98.851562 221.019531 98.507812 220.425781 98.507812 L 185.953125 98.507812 L 263.863281 3.050781 C 264.332031 2.519531 264.300781 1.707031 263.769531 1.175781 Z M 263.769531 1.175781 " fill-opacity="1" fill-rule="nonzero"/></g></g></g></g><g clip-path="url(#a0f9f0ecfa)"><path fill="#ffffff" d="M 274.859375 84.238281 C 274.523438 83.90625 273.984375 83.863281 273.609375 84.175781 L 163.0625 173.050781 C 162.769531 173.300781 162.648438 173.714844 162.769531 174.089844 C 162.894531 174.464844 163.25 174.714844 163.644531 174.714844 L 187.1875 174.714844 L 130.5 225.105469 C 130.210938 225.355469 130.125 225.769531 130.25 226.125 C 130.375 226.476562 130.730469 226.726562 131.125 226.726562 L 152.964844 226.726562 L 100.058594 290.230469 C 99.765625 290.582031 99.765625 291.121094 100.097656 291.476562 C 100.265625 291.664062 100.515625 291.746094 100.765625 291.746094 C 100.972656 291.746094 101.160156 291.683594 101.347656 291.558594 L 218.398438 200.523438 C 218.710938 200.292969 218.835938 199.859375 218.710938 199.484375 C 218.585938 199.109375 218.234375 198.859375 217.839844 198.859375 L 196.332031 198.859375 L 246.679688 150.609375 C 246.949219 150.339844 247.035156 149.945312 246.886719 149.589844 C 246.742188 149.238281 246.410156 149.007812 246.015625 149.007812 L 223.074219 149.007812 L 274.921875 85.484375 C 275.230469 85.132812 275.210938 84.59375 274.859375 84.238281 Z M 274.859375 84.238281 " fill-opacity="1" fill-rule="nonzero"/></g></svg>